<?xml version="1.0" encoding="UTF-8" standalone="no"?>
<!DOCTYPE svg PUBLIC "-//W3C//DTD SVG 1.1//EN"
 "http://www.w3.org/Graphics/SVG/1.1/DTD/svg11.dtd">
<!-- Generated by graphviz version 2.30.1 (20200304.1809)
 -->
<!-- Title: states Pages: 1 -->
<svg width="878pt" height="259pt"
 viewBox="0.00 0.00 878.00 259.00" xmlns="http://www.w3.org/2000/svg" xmlns:xlink="http://www.w3.org/1999/xlink">
<g id="graph0" class="graph" transform="scale(1 1) rotate(0) translate(4 255)">
<title>states</title>
<polygon fill="white" stroke="white" points="-4,5 -4,-255 875,-255 875,5 -4,5"/>
<g id="clust1" class="cluster"><title>cluster_main</title>
<polygon fill="none" stroke="black" points="84,-8 84,-243 770,-243 770,-8 84,-8"/>
<text text-anchor="middle" x="427" y="-227.8" font-family="Times,serif" font-size="14.00">active</text>
</g>
<!-- INACTIVE -->
<g id="node1" class="node"><title>INACTIVE</title>
<ellipse fill="none" stroke="black" cx="835" cy="-145" rx="31.1517" ry="31.1517"/>
<ellipse fill="none" stroke="black" cx="835" cy="-145" rx="35.1609" ry="35.1609"/>
<text text-anchor="middle" x="835" y="-143.1" font-family="Times,serif" font-size="8.00">INACTIVE</text>
</g>
<!-- DEPEND -->
<g id="node2" class="node"><title>DEPEND</title>
<ellipse fill="none" stroke="black" cx="121" cy="-128" rx="28.9464" ry="28.9464"/>
<text text-anchor="middle" x="121" y="-126.1" font-family="Times,serif" font-size="8.00">DEPEND</text>
</g>
<!-- PRIORITY -->
<g id="node3" class="node"><title>PRIORITY</title>
<ellipse fill="none" stroke="black" cx="270" cy="-128" rx="30.0536" ry="30.0536"/>
<text text-anchor="middle" x="270" y="-126.1" font-family="Times,serif" font-size="8.00">PRIORITY</text>
</g>
<!-- DEPEND&#45;&gt;PRIORITY -->
<g id="edge2" class="edge"><title>DEPEND&#45;&gt;PRIORITY</title>
<path fill="none" stroke="black" d="M149.996,-128C172.518,-128 204.44,-128 229.553,-128"/>
<polygon fill="black" stroke="black" points="229.851,-131.5 239.851,-128 229.851,-124.5 229.851,-131.5"/>
<text text-anchor="middle" x="195" y="-131.8" font-family="Times,serif" font-size="14.00">depend</text>
</g>
<!-- CLEANUP -->
<g id="node7" class="node"><title>CLEANUP</title>
<ellipse fill="none" stroke="black" cx="731" cy="-145" rx="31.1609" ry="31.1609"/>
<text text-anchor="middle" x="731" y="-143.1" font-family="Times,serif" font-size="8.00">CLEANUP</text>
</g>
<!-- DEPEND&#45;&gt;CLEANUP -->
<g id="edge10" class="edge"><title>DEPEND&#45;&gt;CLEANUP</title>
<path fill="none" stroke="red" d="M148.063,-139.405C154.52,-142.053 161.464,-144.751 168,-147 199.405,-157.804 207.267,-161.381 240,-167 408.482,-195.923 453.455,-200.706 624,-189 649.961,-187.218 657.935,-190.9 682,-181 687.943,-178.555 693.808,-175.198 699.289,-171.511"/>
<polygon fill="red" stroke="red" points="701.5,-174.231 707.541,-165.528 697.391,-168.564 701.5,-174.231"/>
<text text-anchor="middle" x="453" y="-197.8" font-family="Times,serif" font-size="14.00">exception</text>
</g>
<!-- SCHED -->
<g id="node4" class="node"><title>SCHED</title>
<ellipse fill="none" stroke="black" cx="453" cy="-134" rx="27" ry="27"/>
<text text-anchor="middle" x="453" y="-132.1" font-family="Times,serif" font-size="8.00">SCHED</text>
</g>
<!-- PRIORITY&#45;&gt;SCHED -->
<g id="edge3" class="edge"><title>PRIORITY&#45;&gt;SCHED</title>
<path fill="none" stroke="black" d="M298.536,-118.353C304.853,-116.546 311.597,-114.933 318,-114 354.063,-108.743 364.168,-107.347 400,-114 406.092,-115.131 412.392,-116.949 418.413,-119.038"/>
<polygon fill="black" stroke="black" points="417.607,-122.475 428.199,-122.738 420.083,-115.928 417.607,-122.475"/>
<text text-anchor="middle" x="359" y="-117.8" font-family="Times,serif" font-size="14.00">priority</text>
</g>
<!-- RUN -->
<g id="node5" class="node"><title>RUN</title>
<ellipse fill="none" stroke="black" cx="591" cy="-145" rx="27" ry="27"/>
<text text-anchor="middle" x="591" y="-143.1" font-family="Times,serif" font-size="8.00">RUN</text>
</g>
<!-- SCHED&#45;&gt;RUN -->
<g id="edge4" class="edge"><title>SCHED&#45;&gt;RUN</title>
<path fill="none" stroke="black" d="M480.222,-136.121C501.106,-137.81 530.574,-140.193 553.721,-142.066"/>
<polygon fill="black" stroke="black" points="553.609,-145.568 563.858,-142.886 554.173,-138.591 553.609,-145.568"/>
<text text-anchor="middle" x="523" y="-143.8" font-family="Times,serif" font-size="14.00">alloc</text>
</g>
<!-- SCHED&#45;&gt;PRIORITY -->
<g id="edge7" class="edge"><title>SCHED&#45;&gt;PRIORITY</title>
<path fill="none" stroke="black" d="M425.929,-133.136C395.672,-132.133 345.459,-130.468 310.427,-129.307"/>
<polygon fill="black" stroke="black" points="310.191,-125.797 300.081,-128.964 309.959,-132.793 310.191,-125.797"/>
<text text-anchor="middle" x="359" y="-135.8" font-family="Times,serif" font-size="14.00">flux&#45;restart</text>
</g>
<!-- SCHED&#45;&gt;CLEANUP -->
<g id="edge11" class="edge"><title>SCHED&#45;&gt;CLEANUP</title>
<path fill="none" stroke="red" d="M476.531,-147.776C496.945,-159.363 528.29,-174.974 558,-181 612.223,-191.998 629.726,-188.127 682,-170 686.26,-168.523 690.609,-166.721 694.864,-164.768"/>
<polygon fill="red" stroke="red" points="696.515,-167.858 703.96,-160.32 693.439,-161.569 696.515,-167.858"/>
</g>
<!-- RUN&#45;&gt;CLEANUP -->
<g id="edge5" class="edge"><title>RUN&#45;&gt;CLEANUP</title>
<path fill="none" stroke="black" d="M618.282,-145C638.355,-145 666.381,-145 689.34,-145"/>
<polygon fill="black" stroke="black" points="689.486,-148.5 699.486,-145 689.486,-141.5 689.486,-148.5"/>
<text text-anchor="middle" x="662" y="-148.8" font-family="Times,serif" font-size="14.00">finish</text>
</g>
<!-- REATTACH -->
<g id="node6" class="node"><title>REATTACH</title>
<ellipse fill="none" stroke="black" cx="591" cy="-49" rx="33.376" ry="33.376"/>
<text text-anchor="middle" x="591" y="-47.1" font-family="Times,serif" font-size="8.00">REATTACH</text>
</g>
<!-- RUN&#45;&gt;REATTACH -->
<g id="edge8" class="edge"><title>RUN&#45;&gt;REATTACH</title>
<path fill="none" stroke="black" d="M608.095,-123.862C615.605,-110.924 617.689,-97.985 614.347,-85.0463"/>
<polygon fill="black" stroke="black" points="617.636,-83.848 610.955,-75.625 611.049,-86.2194 617.636,-83.848"/>
<text text-anchor="middle" x="662.279" y="-89.0088" font-family="Times,serif" font-size="14.00">flux&#45;reattach</text>
</g>
<!-- RUN&#45;&gt;CLEANUP -->
<g id="edge12" class="edge"><title>RUN&#45;&gt;CLEANUP</title>
<path fill="none" stroke="red" d="M615.904,-156.102C624.009,-159.316 633.232,-162.39 642,-164 659.486,-167.21 664.537,-167.331 682,-164 685.648,-163.304 689.373,-162.336 693.054,-161.202"/>
<polygon fill="red" stroke="red" points="694.313,-164.469 702.612,-157.884 692.018,-157.856 694.313,-164.469"/>
</g>
<!-- REATTACH&#45;&gt;RUN -->
<g id="edge9" class="edge"><title>REATTACH&#45;&gt;RUN</title>
<path fill="none" stroke="black" d="M571.045,-75.625C565.012,-88.6893 564.51,-101.754 569.539,-114.818"/>
<polygon fill="black" stroke="black" points="566.406,-116.378 573.905,-123.862 572.71,-113.335 566.406,-116.378"/>
<text text-anchor="middle" x="526.715" y="-88.9205" font-family="Times,serif" font-size="14.00">reattached</text>
</g>
<!-- CLEANUP&#45;&gt;INACTIVE -->
<g id="edge6" class="edge"><title>CLEANUP&#45;&gt;INACTIVE</title>
<path fill="none" stroke="black" d="M762.327,-145C770.861,-145 780.323,-145 789.501,-145"/>
<polygon fill="black" stroke="black" points="789.676,-148.5 799.676,-145 789.676,-141.5 789.676,-148.5"/>
</g>
<!-- NEW -->
<g id="node8" class="node"><title>NEW</title>
<ellipse fill="none" stroke="black" cx="27" cy="-128" rx="27" ry="27"/>
<text text-anchor="middle" x="27" y="-126.1" font-family="Times,serif" font-size="8.00">NEW</text>
</g>
<!-- NEW&#45;&gt;DEPEND -->
<g id="edge1" class="edge"><title>NEW&#45;&gt;DEPEND</title>
<path fill="none" stroke="black" d="M54.1174,-128C62.6861,-128 72.3945,-128 81.6741,-128"/>
<polygon fill="black" stroke="black" points="81.8854,-131.5 91.8853,-128 81.8853,-124.5 81.8854,-131.5"/>
</g>
</g>
</svg>
